<svg height="58" viewBox="0 0 512 512" width="58" xmlns="http://www.w3.org/2000/svg"><g><g fill="#57a4ff"><path d="m48 112h24v24h-24z"/><path d="m48 160h24v24h-24z"/><path d="m48 208h24v24h-24z"/><path d="m48 256h24v24h-24z"/><path d="m376 96-60 24 60 24-60 24 60 24-60 24 60 24-120 48-120-48 60-24-60-24 60-24-60-24 60-24-60-24 60-24h120z"/><path d="m440 112h24v24h-24z"/><path d="m440 160h24v24h-24z"/><path d="m440 208h24v24h-24z"/><path d="m440 256h24v24h-24z"/><path d="m496 344v24a24.006 24.006 0 0 1 -24 24h-432a24.006 24.006 0 0 1 -24-24v-24z"/><path d="m168 440h176v24h-176z"/><path d="m376 240-120 48-120-48 60-24h120z"/><path d="m48 112h24v24h-24z"/><path d="m48 160h24v24h-24z"/><path d="m48 208h24v24h-24z"/><path d="m48 256h24v24h-24z"/><path d="m440 112h24v24h-24z"/><path d="m440 160h24v24h-24z"/><path d="m440 208h24v24h-24z"/><path d="m440 256h24v24h-24z"/><path d="m376 192-120 48-120-48 60-24h120z"/><path d="m376 144-120 48-120-48 60-24h120z"/><path d="m376 96-120 48-120-48 120-48z"/></g><g fill="#004fac"><path d="m472 64h-152a8.27 8.27 0 0 0 -1.88.23l-59.15-23.66a8.023 8.023 0 0 0 -5.94 0l-59.15 23.66a8.27 8.27 0 0 0 -1.88-.23h-152a32.03 32.03 0 0 0 -32 32v272a32.03 32.03 0 0 0 32 32h164.9l-10.67 32h-26.23a8 8 0 0 0 -8 8v16h-72a8 8 0 0 0 0 16h352a8 8 0 0 0 0-16h-88v-16a8 8 0 0 0 -8-8h-26.23l-10.67-32h164.9a32.03 32.03 0 0 0 32-32v-272a32.03 32.03 0 0 0 -32-32zm-216-7.38 98.46 39.38-98.46 39.38-98.46-39.38zm0 174.76-98.46-39.38 38.46-15.38 57.03 22.81a8.023 8.023 0 0 0 5.94 0l57.03-22.81 38.46 15.38zm60-6.76 38.46 15.38-98.46 39.38-98.46-39.38 38.46-15.38 57.03 22.81a8.023 8.023 0 0 0 5.94 0zm-60-41.24-98.46-39.38 38.46-15.38 57.03 22.81a8.023 8.023 0 0 0 5.94 0l57.03-22.81 38.46 15.38zm80 264.62v8h-160v-8zm-124.9-16 10.67-32h68.46l10.67 32zm276.9-64a16.021 16.021 0 0 1 -16 16h-432a16.021 16.021 0 0 1 -16-16v-16h464zm0-32h-464v-240a16.021 16.021 0 0 1 16-16h114.46l-21.43 8.57a8 8 0 0 0 0 14.86l41.43 16.57-41.43 16.57a8 8 0 0 0 0 14.86l41.43 16.57-41.43 16.57a8 8 0 0 0 0 14.86l41.43 16.57-41.43 16.57a8 8 0 0 0 0 14.86l120 48a8.023 8.023 0 0 0 5.94 0l120-48a8 8 0 0 0 0-14.86l-41.43-16.57 41.43-16.57a8 8 0 0 0 0-14.86l-41.43-16.57 41.43-16.57a8 8 0 0 0 0-14.86l-41.43-16.57 41.43-16.57a8 8 0 0 0 0-14.86l-21.43-8.57h114.46a16.021 16.021 0 0 1 16 16z"/><path d="m96 360h-48a8 8 0 0 0 0 16h48a8 8 0 0 0 0-16z"/><path d="m128 360h-8a8 8 0 0 0 0 16h8a8 8 0 0 0 0-16z"/><path d="m160 320h192a8 8 0 0 0 0-16h-192a8 8 0 0 0 0 16z"/><path d="m48 144h24a8 8 0 0 0 8-8v-24a8 8 0 0 0 -8-8h-24a8 8 0 0 0 -8 8v24a8 8 0 0 0 8 8zm8-24h8v8h-8z"/><path d="m48 192h24a8 8 0 0 0 8-8v-24a8 8 0 0 0 -8-8h-24a8 8 0 0 0 -8 8v24a8 8 0 0 0 8 8zm8-24h8v8h-8z"/><path d="m48 240h24a8 8 0 0 0 8-8v-24a8 8 0 0 0 -8-8h-24a8 8 0 0 0 -8 8v24a8 8 0 0 0 8 8zm8-24h8v8h-8z"/><path d="m48 288h24a8 8 0 0 0 8-8v-24a8 8 0 0 0 -8-8h-24a8 8 0 0 0 -8 8v24a8 8 0 0 0 8 8zm8-24h8v8h-8z"/><path d="m440 144h24a8 8 0 0 0 8-8v-24a8 8 0 0 0 -8-8h-24a8 8 0 0 0 -8 8v24a8 8 0 0 0 8 8zm8-24h8v8h-8z"/><path d="m440 192h24a8 8 0 0 0 8-8v-24a8 8 0 0 0 -8-8h-24a8 8 0 0 0 -8 8v24a8 8 0 0 0 8 8zm8-24h8v8h-8z"/><path d="m440 240h24a8 8 0 0 0 8-8v-24a8 8 0 0 0 -8-8h-24a8 8 0 0 0 -8 8v24a8 8 0 0 0 8 8zm8-24h8v8h-8z"/><path d="m440 288h24a8 8 0 0 0 8-8v-24a8 8 0 0 0 -8-8h-24a8 8 0 0 0 -8 8v24a8 8 0 0 0 8 8zm8-24h8v8h-8z"/></g></g></svg>